<svg width="90" height="86" viewBox="0 0 90 86" fill="none" xmlns="http://www.w3.org/2000/svg">
<path d="M89.25 72.736C88.866 71.106 88.288 69.5 87.412 68.044C85.67 65.112 83.014 62.874 80.224 61.066C77.406 59.264 74.392 57.818 71.308 56.628C65.402 54.346 65.688 54.422 61.702 53C52.87 49.852 47.966 45.172 47.658 40.096C47.51 37.638 49.91 29.628 59.806 31.532C62.156 31.984 64.38 32.618 66.57 33.606C68.588 34.518 74.478 37.374 76.542 41.44C76.698 43.234 77.33 43.928 79.854 45.12C81.752 46.016 83.668 46.99 83.84 49.198C83.85 49.318 83.942 49.416 84.102 49.44C84.206 49.44 84.302 49.378 84.344 49.278C84.708 48.4 86.174 47.3 87.266 47.6C87.392 47.632 87.504 47.582 87.562 47.478C87.622 47.374 87.602 47.246 87.52 47.162L85.794 45.454C85.172 44.834 84.492 44.012 83.916 42.956C83.76 42.672 83.626 42.392 83.508 42.122C83.432 41.934 83.356 41.748 83.28 41.56C81.832 37.77 79.134 33.71 76.35 31.08C74.838 29.626 73.174 28.346 71.4 27.254C69.618 26.178 67.762 25.222 65.734 24.65L65.586 25.162C67.48 25.816 69.252 26.86 70.91 28C72.566 29.158 74.096 30.486 75.456 31.958C77.398 34.022 78.928 36.418 80.02 38.982L76.034 34.028L76.144 35.744L72.878 32.062L73.08 33.786L69.908 31.228L70.18 32.396C69.466 31.924 63.13 29.404 59.968 28.216C56.806 27.028 50.558 21.168 52.36 13.752C52.36 13.752 49.406 12.604 47.29 11.822C45.204 11.07 43.11 10.388 41.01 9.72998C36.81 8.41398 32.586 7.21398 28.34 6.09398C24.094 4.97998 19.82 3.96998 15.522 3.07798C11.222 2.19598 6.89802 1.40998 2.52202 0.971985L2.44402 1.63798C6.75002 2.29998 11 3.30399 15.218 4.40199C19.434 5.51199 23.622 6.73398 27.776 8.05999C31.928 9.38999 36.054 10.8 40.13 12.316C42.166 13.074 44.196 13.854 46.184 14.692C46.606 14.868 47.036 15.052 47.466 15.236C45.018 14.754 42.57 14.372 40.12 14.054C35.698 13.492 31.272 13.138 26.842 12.938C22.414 12.738 17.982 12.706 13.558 12.87C9.13602 13.042 4.71202 13.388 0.348022 14.136L0.434022 14.744C4.79402 14.296 9.18402 14.252 13.56 14.378C17.938 14.512 22.308 14.84 26.654 15.332C30.998 15.824 35.324 16.466 39.592 17.304C42.224 17.826 44.84 18.432 47.398 19.146C45.376 18.944 43.364 18.892 41.37 18.916C37.416 18.976 33.518 19.41 29.674 20.064C25.83 20.724 22.038 21.61 18.324 22.756C14.622 23.914 10.962 25.29 7.60202 27.254L7.83402 27.67C11.274 26.014 14.97 24.954 18.686 24.112C22.41 23.284 26.188 22.716 29.974 22.376C33.756 22.04 37.558 21.928 41.3 22.174C44.628 22.394 47.934 22.9 50.96 23.872C51.09 24.762 51.692 26.564 51.982 27.464C43.472 31.378 42.394 38.418 43.09 42.194C43.908 46.622 47.112 49.998 50.898 52.184C54.032 53.966 57.234 55.102 60.35 56.278C63.46 57.444 66.54 58.564 69.284 60.114C71.988 61.608 74.236 63.916 76.066 66.534C79.74 71.81 81.21 78.462 81.65 85.024L82.38 85.004C82.396 78.358 81.44 71.4 77.876 65.38C76.7 63.408 75.248 61.538 73.534 59.914C75.518 60.682 77.456 61.55 79.308 62.58C82.054 64.138 84.642 66.078 86.404 68.682C87.292 69.976 87.914 71.432 88.37 72.948C88.774 74.482 88.96 76.078 89.028 77.69H89.652C89.674 76.044 89.582 74.38 89.25 72.736Z" fill="white"/>
</svg>
